# xmcd
#
# Track frame offsets: 
#        150
#        11595
#        24330
#        38618
#        50600
#        60270
#        71878
#        85738
#        94881
#        108598
#        124423
#        137248
#        150823
#        161548
#        171172
#        181437
#        193562
#        204427
#        216767
#        226264
#        240157
#        251707
#        267314
#
# Disc length: 3717 seconds
#
# Revision: 0
# Processed by: cddbd v1.5.2PL0 Copyright (c) Steve Scherf et al.
# Submitted via: ExactAudioCopy v0.95b3
#
DISCID=330e8317
DTITLE=The Beatles  - On Stage 1964 - Vol. 1 - Disc 2  FLAC
DYEAR=1900
DGENRE=
TTITLE0=She Love's You
TTITLE1=This Boy
TTITLE2=All My Loving
TTITLE3=I Saw Her Standing There
TTITLE4=From Me To You
TTITLE5=I Want To Hold Your Hand
TTITLE6=Twist And Shout
TTITLE7=Please Please Me
TTITLE8=I Want To Hold Your Hand
TTITLE9=She Love's You
TTITLE10=You Can't Do That
TTITLE11=Twist And Shout
TTITLE12=Long Tall Sally
TTITLE13=Can't Buy Me Love
TTITLE14=I Saw Her Standing There
TTITLE15=I Want To Hold Your Hand
TTITLE16=All My Loving
TTITLE17=She Loves You
TTITLE18=Till There Was You
TTITLE19=Roll Over Beethoven
TTITLE20=Can't Buy Me Love
TTITLE21=This Boy
TTITLE22=Twist And Shout
EXTD=
EXTT0=
EXTT1=
EXTT2=
EXTT3=
EXTT4=
EXTT5=
EXTT6=
EXTT7=
EXTT8=
EXTT9=
EXTT10=
EXTT11=
EXTT12=
EXTT13=
EXTT14=
EXTT15=
EXTT16=
EXTT17=
EXTT18=
EXTT19=
EXTT20=
EXTT21=
EXTT22=
PLAYORDER=
